<?xml version="1.0" standalone="no"?><!DOCTYPE svg PUBLIC "-//W3C//DTD SVG 1.1//EN" "http://www.w3.org/Graphics/SVG/1.1/DTD/svg11.dtd"><svg t="1603288355153" class="icon" viewBox="0 0 1024 1024" version="1.1" xmlns="http://www.w3.org/2000/svg" p-id="2841" xmlns:xlink="http://www.w3.org/1999/xlink" width="128" height="128"><defs><style type="text/css"></style></defs><path d="M807.537993 408.872225l-99.219769 231.335762c-5.233188 12.161994-16.680914 19.404955-28.892027 19.836791-0.481977 0.016373-2.425236 0.016373-2.907213 0-12.311397-0.415462-23.858384-7.659447-29.107945-19.836791l-85.911672-199.038172 0 185.846732c0 18.359137-14.869662 33.228799-33.228799 33.228799s-33.228799-14.869662-33.228799-33.228799l0-99.086739-66.75538 115.618251c-6.396687 11.081383-18.20871 16.929578-30.154787 16.447601-11.43033 0.481977-22.745027-5.366218-28.859281-16.447601l-73.601298-133.279493 0 116.747981c0 18.359137-14.869662 33.228799-33.228799 33.228799s-33.228799-14.869662-33.228799-33.228799L229.213425 394.418025c0-18.359137 14.869662-33.228799 33.228799-33.228799 14.105253 0 26.067702 8.821923 30.902824 21.199835 4.718465 2.824325 104.785531 180.479491 104.785531 180.479491l96.910167-167.852916c0 0 14.869662-33.82641 33.228799-33.82641 10.051937 0 18.940374 4.552689 25.037233 11.597129 3.090385-3.538593 6.895037-6.529717 11.413957-8.573259 16.830317-7.642051 36.434817-0.016373 43.778062 17.012466l69.447698 160.90876 69.01484-160.90876c7.310499-17.029862 26.798343-24.65554 43.529399-17.012466C807.205419 371.838773 814.848493 391.842363 807.537993 408.872225z" fill="#d81e06" p-id="2842"></path><path d="M927.011039 294.732651c0-82.572624-66.938552-149.527548-149.527548-149.527548L245.828848 145.205103c-82.588997 0-149.527548 66.954925-149.527548 149.527548l0 431.969269c0 82.588997 66.938552 149.527548 149.527548 149.527548l531.653619 0c82.588997 0 149.527548-66.938552 149.527548-149.527548L927.010015 294.732651zM794.096866 942.686043 229.214449 942.686043c-110.10263 0-199.370747-89.268116-199.370747-199.370747L29.843702 278.118252c0-110.10263 89.268116-199.370747 199.370747-199.370747l564.882418 0c110.10263 0 199.370747 89.268116 199.370747 199.370747l0 465.197044C993.467613 853.417927 904.199497 942.686043 794.096866 942.686043z" fill="#d81e06" p-id="2843"></path></svg>