<?xml version="1.0" standalone="no"?><!DOCTYPE svg PUBLIC "-//W3C//DTD SVG 1.1//EN" "http://www.w3.org/Graphics/SVG/1.1/DTD/svg11.dtd"><svg t="1603351237845" class="icon" viewBox="0 0 1031 1024" version="1.1" xmlns="http://www.w3.org/2000/svg" p-id="8284" xmlns:xlink="http://www.w3.org/1999/xlink" width="128.875" height="128"><defs><style type="text/css"></style></defs><path d="M34.02384185-12.00482873l578.24246267 0 430.55282933 430.55282935 0 558.21674965z" fill="#707070" p-id="8285"></path><path d="M703.14666666 226.98666667l-189.44 104.96-16.64-16.64 104.96-189.44 20.48 20.48-81.92 140.8 1.28 1.28 140.8-81.92 20.48 20.48zM626.34666666 439.46666667l-19.2-19.2 144.64-144.64 19.2 19.2L626.34666666 439.46666667zM873.38666666 485.54666667c-14.08 14.08-28.16 20.48-43.52 20.48-15.36 0-30.72-7.68-44.8-21.76l-24.32-24.32-58.88 56.32-19.2-19.2L827.30666666 352.42666667l43.52 43.52c14.08 14.08 21.76 29.44 21.76 44.8 1.28 16.64-6.4 30.72-19.2 44.8zM852.90666666 465.06666667c10.24-10.24 15.36-20.48 14.08-29.44s-6.4-19.2-16.64-29.44l-19.2-19.2-56.32 56.32 19.2 19.2c10.24 10.24 19.2 15.36 29.44 16.64 8.96 2.56 19.2-2.56 29.44-14.08z" fill="#ffffff" p-id="8286"></path></svg>