<?xml version="1.0" standalone="no"?><!DOCTYPE svg PUBLIC "-//W3C//DTD SVG 1.1//EN" "http://www.w3.org/Graphics/SVG/1.1/DTD/svg11.dtd"><svg t="1603351240999" class="icon" viewBox="0 0 1024 1024" version="1.1" xmlns="http://www.w3.org/2000/svg" p-id="8425" xmlns:xlink="http://www.w3.org/1999/xlink" width="128" height="128"><defs><style type="text/css"></style></defs><path d="M728.23466667 352.768l-177.9712-248.25173333a47.104 47.104 0 0 0-76.5952 0l-178.00533334 248.25173333-206.5408-67.72053333a47.104 47.104 0 0 0-60.55253333 55.63733333l108.88533333 461.312a17.8176 17.8176 0 0 0 17.54453334 13.4144h714.41066666c8.15786667 0 15.36-5.49546667 17.5104-13.4144l108.50986667-461.4144a47.104 47.104 0 0 0-60.55253333-55.53493333l-206.6432 67.72053333z" fill="#FEC675" p-id="8426"></path><path d="M728.23466667 352.768l-185.07093334-258.1504a17.06666667 17.06666667 0 0 0-30.9248 10.0352l3.584 710.7584H869.376c8.15786667 0 15.36-5.49546667 17.5104-13.4144l108.50986667-461.4144a47.104 47.104 0 0 0-60.55253334-55.53493333l-206.6432 67.72053333z" fill="#FFDBA5" p-id="8427"></path><path d="M692.224 468.48l-154.35093333 212.6848c-5.0176 8.36266667-15.01866667 13.38026667-25.7024 12.83413333h-75.09333334l-64.3072-219.10186666a24.576 24.576 0 0 0-17.13493333-14.9504l-25.66826667-8.4992h120.0128l49.28853334 161.51893333 107.17866666-135.91893333a13.03893333 13.03893333 0 0 0 0.23893334-11.19573334 15.53066667 15.53066667 0 0 0-8.77226667-7.9872l-19.28533333-6.41706666h100.72746666a13.48266667 13.48266667 0 0 1 12.52693334 4.88106666 10.24 10.24 0 0 1 0.34133333 12.15146667z" fill="#A97539" p-id="8428"></path></svg>