<?xml version="1.0" standalone="no"?><!DOCTYPE svg PUBLIC "-//W3C//DTD SVG 1.1//EN" "http://www.w3.org/Graphics/SVG/1.1/DTD/svg11.dtd"><svg t="1606267793683" class="icon" viewBox="0 0 1024 1024" version="1.1" xmlns="http://www.w3.org/2000/svg" p-id="5666" xmlns:xlink="http://www.w3.org/1999/xlink" width="128" height="128"><defs><style type="text/css"></style></defs><path d="M426.535385 749.095385c86.685538 86.646154 85.622154 86.882462 172.465231 0l258.717538-258.678154C905.294769 442.722462 889.147077 433.230769 839.010462 433.230769L708.923077 433.230769 708.923077 118.153846c0-65.260308-52.932923-118.153846-118.153846-118.153846l-157.538462 0C368.009846 0 315.076923 52.893538 315.076923 118.153846l0 315.076923L186.761846 433.230769c-55.532308 0-66.481231 9.491692-18.904615 57.147077L426.535385 749.095385z" p-id="5667"></path><path d="M945.230769 748.307692l0 157.538462c0 21.700923-17.644308 39.384615-39.384615 39.384615L118.153846 945.230769c-21.740308 0-39.384615-17.683692-39.384615-39.384615l0-157.538462L0 748.307692l0 157.538462c0 65.220923 52.932923 118.153846 118.153846 118.153846l787.692308 0c65.220923 0 118.153846-52.932923 118.153846-118.153846l0-157.538462L945.230769 748.307692z" p-id="5668"></path></svg>