<?xml version="1.0" standalone="no"?><!DOCTYPE svg PUBLIC "-//W3C//DTD SVG 1.1//EN" "http://www.w3.org/Graphics/SVG/1.1/DTD/svg11.dtd"><svg t="1602652570328" class="icon" viewBox="0 0 1024 1024" version="1.1" xmlns="http://www.w3.org/2000/svg" p-id="6289" xmlns:xlink="http://www.w3.org/1999/xlink" width="128" height="128"><defs><style type="text/css"></style></defs><path d="M484.352 776.192c7.168 7.168 16.896 11.264 27.648 11.264 10.24 0 19.968-4.096 27.648-11.264l262.656-262.656c7.168-7.168 11.264-16.896 11.264-27.648 0-7.168-2.048-13.824-5.12-19.456-2.56-4.608-6.144-8.192-10.24-11.776l-3.584-2.56c-6.144-3.584-12.8-5.632-19.968-5.632-10.24 0-19.968 4.096-27.648 11.264l-196.608 196.608V92.672c0-21.504-16.384-39.936-37.888-40.448-22.016-0.512-39.936 16.896-39.936 38.912v563.2L276.48 458.24c-7.168-7.168-16.896-11.264-27.648-11.264s-19.968 4.096-27.648 11.264c-7.168 7.168-11.264 16.896-11.264 27.648 0 10.24 4.096 19.968 11.264 27.648l263.168 262.656z" p-id="6290"></path><path d="M985.088 736.256c-21.504 0-38.912 17.408-38.912 38.912v104.96c0 7.68-6.144 13.824-13.824 13.824H91.648c-7.68 0-13.824-6.144-13.824-13.824v-104.96c0-21.504-17.408-38.912-38.912-38.912S0 753.664 0 775.168v104.96c0 50.176 40.96 91.648 91.648 91.648h841.216c50.176 0 91.648-40.96 91.648-91.648v-104.96c-0.512-21.504-17.92-38.912-39.424-38.912z" p-id="6291"></path></svg>