<?xml version="1.0" standalone="no"?><!DOCTYPE svg PUBLIC "-//W3C//DTD SVG 1.1//EN" "http://www.w3.org/Graphics/SVG/1.1/DTD/svg11.dtd"><svg t="1602644572153" class="icon" viewBox="0 0 1024 1024" version="1.1" xmlns="http://www.w3.org/2000/svg" p-id="7561" xmlns:xlink="http://www.w3.org/1999/xlink" width="128" height="128"><defs><style type="text/css"></style></defs><path d="M748.28 782.5h-13.72v-75h13.72c78.42 0 142.22-63.8 142.22-142.22s-63.8-142.22-142.22-142.22h-56.41l-0.36-37.14c-0.94-97.81-81.29-177.38-179.11-177.38s-178.17 79.57-179.11 177.38l-0.36 37.14h-54.32c-78.42 0-142.22 63.8-142.22 142.22s63.8 142.22 142.22 142.22h21.06v75h-21.06c-57.82 0-112.32-22.65-153.44-63.78-41.13-41.12-63.78-95.62-63.78-153.44 0-57.82 22.65-112.32 63.78-153.44 36.98-36.98 84.76-59.02 136.06-63.09 8.18-53.5 33.18-102.81 72.29-141.58 47.9-47.48 111.43-73.63 178.88-73.63s130.98 26.15 178.88 73.63c39.08 38.73 64.06 87.99 72.27 141.42 52.1 3.62 100.69 25.76 138.18 63.25 41.13 41.13 63.78 95.62 63.78 153.44 0 57.82-22.65 112.32-63.78 153.44-41.14 41.13-95.63 63.78-153.45 63.78z" p-id="7562"></path><path d="M474.6 468.21h75V787.8h-75z" p-id="7563"></path><path d="M511.92 841.09L344.07 702.68l47.72-57.86 120.29 99.2 121.69-99.67 47.52 58.03z" p-id="7564"></path></svg>