<?xml version="1.0" standalone="no"?><!DOCTYPE svg PUBLIC "-//W3C//DTD SVG 1.1//EN" "http://www.w3.org/Graphics/SVG/1.1/DTD/svg11.dtd"><svg t="1603164271114" class="icon" viewBox="0 0 1024 1024" version="1.1" xmlns="http://www.w3.org/2000/svg" p-id="8016" xmlns:xlink="http://www.w3.org/1999/xlink" width="128" height="128"><defs><style type="text/css"></style></defs><path d="M512 938.666667 512 938.666667C747.641493 938.666667 938.666667 747.641489 938.666667 512 938.666667 276.358511 747.641493 85.333333 512 85.333333 276.358507 85.333333 85.333333 276.358511 85.333333 512 85.333333 747.641489 276.358507 938.666667 512 938.666667L512 938.666667ZM512 1024 512 1024C229.230208 1024 0 794.769792 0 512 0 229.230208 229.230208 0 512 0 794.769792 0 1024 229.230208 1024 512 1024 794.769792 794.769792 1024 512 1024L512 1024ZM512 597.333333 512 597.333333C559.128299 597.333333 597.333333 559.128294 597.333333 512 597.333333 464.871706 559.128299 426.666667 512 426.666667 464.871701 426.666667 426.666667 464.871706 426.666667 512 426.666667 559.128294 464.871701 597.333333 512 597.333333L512 597.333333ZM512 682.666667 512 682.666667C417.743403 682.666667 341.333333 606.256597 341.333333 512 341.333333 417.743403 417.743403 341.333333 512 341.333333 606.256597 341.333333 682.666667 417.743403 682.666667 512 682.666667 606.256597 606.256597 682.666667 512 682.666667L512 682.666667Z" p-id="8017"></path></svg>