<?xml version="1.0" standalone="no"?><!DOCTYPE svg PUBLIC "-//W3C//DTD SVG 1.1//EN" "http://www.w3.org/Graphics/SVG/1.1/DTD/svg11.dtd"><svg t="1602566169284" class="icon" viewBox="0 0 1024 1024" version="1.1" xmlns="http://www.w3.org/2000/svg" p-id="3967" xmlns:xlink="http://www.w3.org/1999/xlink" width="128" height="128"><defs><style type="text/css"></style></defs><path d="M111.86 523.4a50 50 0 0 0 50 50h580.28l-85.51 85.52a50 50 0 0 0 70.71 70.71L894.87 562.1a52.4 52.4 0 0 0 2.18-2.05 49.85 49.85 0 0 0 14.64-35.36v-0.12a49.85 49.85 0 0 0-14.64-35.36c-0.71-0.71-1.44-1.4-2.19-2.06L727.34 319.63a50 50 0 0 0-70.71 70.71l83.06 83.06H161.86a50 50 0 0 0-50 50z" fill="#d81e06" p-id="3968"></path></svg>