<?xml version="1.0" standalone="no"?><!DOCTYPE svg PUBLIC "-//W3C//DTD SVG 1.1//EN" "http://www.w3.org/Graphics/SVG/1.1/DTD/svg11.dtd"><svg t="1602569421071" class="icon" viewBox="0 0 1024 1024" version="1.1" xmlns="http://www.w3.org/2000/svg" p-id="2890" xmlns:xlink="http://www.w3.org/1999/xlink" width="128" height="128"><defs><style type="text/css"></style></defs><path d="M745.65898437 533.84433594l-416.32822265 416.32822265c-6.66298828 6.66298828-15.86689453 10.78330078-26.03408203 10.78330079-20.33349609 0-36.81738281-16.48388672-36.81738282-36.81738282 0-10.1671875 4.12119141-19.37109375 10.78330079-26.03408203l394.49355468-394.49355469-381.82675781-381.89707031c-6.07763672-6.2859375-9.82265625-14.86054687-9.82265625-24.30878906 0-19.32539062 15.66650391-34.99189453 34.99189453-34.99189453 9.44912109 0 18.02285156 3.74501953 24.31845703 9.83144531l395.88398438 395.88398437c4.78740234 4.87265625 8.14042969 11.16914062 9.36738281 18.1959961-0.759375-4.89814453 0.29003906-5.52919922 0.99052734-4.47978516 6.64277344 6.65859375 10.75078125 15.8484375 10.75078125 25.99892578 0 10.14960938-4.10800781 19.34033203-10.75166015 25.99892578z" fill="#777D90" p-id="2891"></path></svg>