<?xml version="1.0" standalone="no"?><!DOCTYPE svg PUBLIC "-//W3C//DTD SVG 1.1//EN" "http://www.w3.org/Graphics/SVG/1.1/DTD/svg11.dtd"><svg t="1620214530772" class="icon" viewBox="0 0 1024 1024" version="1.1" xmlns="http://www.w3.org/2000/svg" p-id="4113" xmlns:xlink="http://www.w3.org/1999/xlink" width="128" height="128"><defs><style type="text/css"></style></defs><path d="M303.45577 730.339774c-46.118253 0-83.639349-37.612643-83.639349-83.853803 0-46.246277 37.521097-83.876316 83.639349-83.876316 13.34652 0 24.514329 9.324366 27.40222 21.805632L330.85799 380.447848c0-39.942711 32.915002-71.373561 75.301101-72.28942l252.220772-31.611975c1.154338-0.146333 2.324026-0.220011 3.486551-0.220011 41.745482 0 75.706347 34.051537 75.706347 75.90783l0 281.56577c0 46.242184-37.524167 83.85585-83.643443 83.85585-46.116206 0-83.630139-37.612643-83.630139-83.85585 0-46.242184 37.51291-83.874269 83.630139-83.874269 13.34959 0 24.518422 9.30697 27.400173 21.807678l0-219.49918c0-10.3006-8.000544-18.762319-18.090766-19.461237l-251.681467 31.541367c-1.153314 0.146333-2.326073 0.220011-3.486551 0.220011-8.43035 0-20.971494 4.241604-20.971494 15.914458l0 266.038122C387.09819 692.726108 349.57607 730.339774 303.45577 730.339774zM330.85799 597.192288c-2.887891 12.484336-14.055701 21.811772-27.40222 21.811772-15.101563 0-27.39608 12.33391-27.39608 27.481911 0 15.142885 12.294517 27.459399 27.39608 27.459399 15.105657 0 27.40222-12.316513 27.40222-27.459399L330.85799 597.192288zM681.32949 584.509431c-2.881751 12.500709-14.050584 21.807678-27.400173 21.807678-15.101563 0-27.38687 12.335956-27.38687 27.481911 0 15.143908 12.285307 27.461445 27.38687 27.461445 15.105657 0 27.400173-12.316513 27.400173-27.461445L681.32949 584.509431z" p-id="4114" fill="#666666"></path><path d="M510.404599 953.051111c-242.931831 0-440.570229-198.168362-440.570229-441.751053S267.472767 69.546959 510.404599 69.546959c242.929785 0 440.568183 198.170408 440.568183 441.753099S753.335407 953.051111 510.404599 953.051111zM510.404599 125.94341c-211.919235 0-384.32696 172.870186-384.32696 385.356648s172.407725 385.358695 384.32696 385.358695c211.915142 0 384.325937-172.872233 384.325937-385.358695S722.320764 125.94341 510.404599 125.94341z" p-id="4115" fill="#666666"></path><path d="M164.55045 960.155926c-6.295644 0-12.640409-2.110057-17.87484-6.441713-14.071051-11.641131-27.726622-24.103978-40.600354-37.009915-12.825635-12.847609-25.247047-26.544563-36.900947-40.714284-9.874296-12.007475-8.1827-29.77821 3.801742-39.689954 11.973185-9.91379 29.703732-8.223289 39.590309 3.816932 10.501609 12.761652 21.696025 25.111934 33.275221 36.696784 11.62627 11.6749 23.947393 22.909779 36.624643 33.392528 11.983419 9.91379 13.677061 27.701922 3.790485 39.706327C180.70197 956.669522 172.654352 960.155926 164.55045 960.155926z" p-id="4116" fill="#666666"></path><path d="M929.955236 192.742792c-8.109019 0-16.147426-3.484358-21.713422-10.260691-10.501609-12.757558-21.696025-25.110911-33.275221-36.694737-11.624223-11.676947-23.945347-22.909779-36.626689-33.392528-11.981372-9.91379-13.675015-27.701922-3.790485-39.706327 9.880436-12.005428 27.620194-13.713326 39.584168-3.801583 14.071051 11.641131 27.728669 24.103978 40.598307 37.008892 12.824612 12.851703 25.24807 26.546609 36.902994 40.718377 9.874296 12.005428 8.180653 29.774117-3.800719 39.689954C942.596669 190.632735 936.251904 192.742792 929.955236 192.742792z" p-id="4117" fill="#666666"></path></svg>