<?xml version="1.0" standalone="no"?><!DOCTYPE svg PUBLIC "-//W3C//DTD SVG 1.1//EN" "http://www.w3.org/Graphics/SVG/1.1/DTD/svg11.dtd"><svg t="1602769068211" class="icon" viewBox="0 0 1024 1024" version="1.1" xmlns="http://www.w3.org/2000/svg" p-id="2916" xmlns:xlink="http://www.w3.org/1999/xlink" width="128" height="128"><defs><style type="text/css"></style></defs><path d="M431.22 359.52v304.61l1.8 1.59L646.5 829.09V194.57L431.68 359.52h-0.46z m-37.89 6.55H263.35V657.6h129.97V366.07h0.01z m8.34-63.64l255.65-196.08c5.87-4.74 13.1-7.47 20.77-7.47 17.58 0 31.82 14.01 31.82 31.61v210.75c29.55 12.18 55.27 31.59 74.68 56.4 24.82 31.59 39.49 71.08 39.49 114.19 0 43.09-14.67 82.81-39.49 114.17-19.41 24.82-45.13 44.23-74.68 56.4v210.75c0 7.23-2.03 13.77-6.54 19.64-10.61 13.77-30.71 16.47-44.25 5.64l-257.45-197.2H231.75c-17.58 0-31.82-14.21-31.82-31.59V334.25c0-17.61 14.23-31.82 31.82-31.82h169.92z m308.23 80.78v257.24c17.38-9.47 32.49-22.57 44.9-37.92 19.41-24.82 31.15-56.4 31.15-90.69 0-33.85-11.74-65.67-31.15-90.48-12.41-15.57-27.52-28.45-44.9-38.15z" p-id="2917"></path></svg>