<?xml version="1.0" standalone="no"?><!DOCTYPE svg PUBLIC "-//W3C//DTD SVG 1.1//EN" "http://www.w3.org/Graphics/SVG/1.1/DTD/svg11.dtd"><svg t="1602753328968" class="icon" viewBox="0 0 1024 1024" version="1.1" xmlns="http://www.w3.org/2000/svg" p-id="3901" xmlns:xlink="http://www.w3.org/1999/xlink" width="128" height="128"><defs><style type="text/css"></style></defs><path d="M539.33 978.45c-14.08 0-28.17-4.12-40.19-12.44-141.31-97.82-246.75-199.63-313.42-302.59-58.22-89.91-85.38-179.83-78.56-260.05 3.82-44.94 17.87-85.23 41.75-119.77 22.7-32.83 54-59.16 90.51-76.17 86.69-40.37 192.98-26.01 284.34 38.43 5.95 4.2 14.66 3.7 21.16-1.2 61.59-46.51 128.45-68.86 193.34-64.62 62.45 4.08 117.38 32.95 154.67 81.29 26.84 34.8 43.45 78.87 48.03 127.44 4.9 51.98-3.52 108.18-25.02 167.05-23.25 63.67-61.48 129.15-113.62 194.64C745.28 822.1 671.49 893.77 583 963.47c-12.65 9.96-28.15 14.98-43.67 14.98z m-196-745.57c-29.29 0-57.63 5.95-83.64 18.06-60.47 28.16-98.63 85.2-104.7 156.49-5.91 69.51 18.65 149.01 71.02 229.9C289.25 735 390.34 832.3 526.46 926.54c8.1 5.61 19.14 5.29 26.83-0.77 162.02-127.61 271.83-261.23 317.55-386.41 19.04-52.12 26.55-101.27 22.32-146.08-3.73-39.53-16.95-75.02-38.25-102.63-28.75-37.27-71.29-59.54-119.79-62.71-53.22-3.48-109.01 15.55-161.28 55.03-23.32 17.61-54.56 18.46-77.74 2.12-48.84-34.45-102.2-52.21-152.77-52.21z" p-id="3902"></path></svg>