<?xml version="1.0" standalone="no"?><!DOCTYPE svg PUBLIC "-//W3C//DTD SVG 1.1//EN" "http://www.w3.org/Graphics/SVG/1.1/DTD/svg11.dtd"><svg t="1602569416233" class="icon" viewBox="0 0 1024 1024" version="1.1" xmlns="http://www.w3.org/2000/svg" p-id="2749" xmlns:xlink="http://www.w3.org/1999/xlink" width="128" height="128"><defs><style type="text/css"></style></defs><path d="M278.34101562500007 490.1556640625l416.3282226562499-416.3282226562501c6.662988281249996-6.662988281250006 15.866894531249994-10.783300781250007 26.034082031249987-10.783300781250016 20.33349609375-1.9539925233402755e-14 36.817382812500014 16.483886718749975 36.81738281250003 36.81738281249998 9.769962616701378e-15 10.167187499999997-4.121191406249994 19.371093749999996-10.783300781249984 26.034082031250012l-394.49355468749974 394.49355468750025 381.8267578125003 381.8970703124998c6.077636718750004 6.285937499999996 9.82265625000001 14.860546874999994 9.822656250000017 24.308789062499986 7.105427357601002e-15 19.325390624999997-15.666503906249984 34.99189453125001-34.99189453124998 34.99189453125003-9.449121093749998 8.881784197001252e-15-18.0228515625-3.7450195312499917-24.318457031250002-9.831445312499998l-395.8839843750001-395.88398437499995c-4.787402343750004-4.872656249999997-8.140429687500008-11.169140624999994-9.367382812500013-18.19599609375 0.7593750000000039 4.898144531250001-0.2900390624999978 5.52919921875-0.9905273437499975 4.479785156250001-6.642773437500004-6.658593749999995-10.750781250000006-15.848437499999994-10.750781250000014-25.998925781249987-7.105427357601002e-15-10.149609375 4.108007812499988-19.34033203125 10.751660156249985-25.99892578125001z" fill="#777D90" p-id="2750"></path></svg>