<?xml version="1.0" standalone="no"?><!DOCTYPE svg PUBLIC "-//W3C//DTD SVG 1.1//EN" "http://www.w3.org/Graphics/SVG/1.1/DTD/svg11.dtd"><svg t="1602652579653" class="icon" viewBox="0 0 1170 1024" version="1.1" xmlns="http://www.w3.org/2000/svg" p-id="6710" xmlns:xlink="http://www.w3.org/1999/xlink" width="146.25" height="128"><defs><style type="text/css"></style></defs><path d="M969.04 173.368a289.66 289.66 0 0 0-397.153-8.732 289.66 289.66 0 0 0-397.153 8.732 283.637 283.637 0 0 0 0 403.777L507.451 906.85a90.33 90.33 0 0 0 128.872 0L969.04 577.446a283.637 283.637 0 0 0 0-404.078z m-43.058 361.321L593.265 864.395a30.11 30.11 0 0 1-42.756 0L217.49 534.69a224.02 224.02 0 0 1 0-318.866 228.536 228.536 0 0 1 313.446-5.119l40.95 35.23 40.649-35.23a228.536 228.536 0 0 1 313.446 6.625 224.02 224.02 0 0 1 0 317.36z" p-id="6711"></path><path d="M368.644 240.814a127.968 127.968 0 0 0-127.968 127.969 15.055 15.055 0 0 0 30.11 0 97.858 97.858 0 0 1 97.858-97.858 15.055 15.055 0 0 0 0-30.11z" p-id="6712"></path></svg>