<?xml version="1.0" standalone="no"?><!DOCTYPE svg PUBLIC "-//W3C//DTD SVG 1.1//EN" "http://www.w3.org/Graphics/SVG/1.1/DTD/svg11.dtd"><svg t="1602656255554" class="icon" viewBox="0 0 1170 1024" version="1.1" xmlns="http://www.w3.org/2000/svg" p-id="18125" xmlns:xlink="http://www.w3.org/1999/xlink" width="146.25" height="128"><defs><style type="text/css"></style></defs><path d="M1066.676944 101.025891A351.539301 351.539301 0 0 0 584.680751 90.428552a351.539301 351.539301 0 0 0-481.996194 10.597339 344.230792 344.230792 0 0 0 0 490.035554l403.795143 400.140888a109.627641 109.627641 0 0 0 156.402101 0l403.795143-399.775463a344.230792 344.230792 0 0 0 0-490.400979z m-52.255842 438.510563L610.625959 939.677342a36.542547 36.542547 0 0 1-51.890417 0L154.574973 539.536454a271.876549 271.876549 0 0 1 0-386.985572A277.357931 277.357931 0 0 1 534.982887 146.338649L584.680751 189.093429 634.013189 146.338649a277.357931 277.357931 0 0 1 380.407913 8.03936 271.876549 271.876549 0 0 1 0 385.158445z" fill="#a0a0a0" p-id="18126"></path><path d="M338.018559 182.881196A155.305824 155.305824 0 0 0 182.712735 338.18702a18.271273 18.271273 0 0 0 36.542546 0A118.763277 118.763277 0 0 1 338.018559 219.423743a18.271273 18.271273 0 0 0 0-36.542547z" fill="#a0a0a0" p-id="18127"></path></svg>