<?xml version="1.0" standalone="no"?><!DOCTYPE svg PUBLIC "-//W3C//DTD SVG 1.1//EN" "http://www.w3.org/Graphics/SVG/1.1/DTD/svg11.dtd"><svg t="1603872972766" class="icon" viewBox="0 0 1024 1024" version="1.1" xmlns="http://www.w3.org/2000/svg" p-id="4341" xmlns:xlink="http://www.w3.org/1999/xlink" width="128" height="128"><defs><style type="text/css"></style></defs><path d="M755.9 727.7h-487c-17.3 0-31.4-14.1-31.4-31.4 0-17.3 14.1-31.4 31.4-31.4h487c17.3 0 31.4 14.1 31.4 31.4 0 17.3-14.1 31.4-31.4 31.4zM755.9 547.1h-487c-17.3 0-31.4-14.1-31.4-31.4 0-17.3 14.1-31.4 31.4-31.4h487c17.3 0 31.4 14.1 31.4 31.4 0 17.2-14.1 31.4-31.4 31.4zM755.9 347H473.7c-17.3 0-31.4-14.1-31.4-31.4 0-17.3 14.1-31.4 31.4-31.4h282.1c17.3 0 31.4 14.1 31.4 31.4 0.1 17.3-14 31.4-31.3 31.4zM266.7 228.5l109.8 82.3c6.2 4.9 6.2 13.4 0 18.3l-109.8 73.7c-9 7.1-23.1 1.4-23.1-9.1v-156c-0.1-10.7 14.1-16.3 23.1-9.2z" p-id="4342"></path></svg>