<?xml version="1.0" standalone="no"?><!DOCTYPE svg PUBLIC "-//W3C//DTD SVG 1.1//EN" "http://www.w3.org/Graphics/SVG/1.1/DTD/svg11.dtd"><svg t="1602560258309" class="icon" viewBox="0 0 1024 1024" version="1.1" xmlns="http://www.w3.org/2000/svg" p-id="2128" xmlns:xlink="http://www.w3.org/1999/xlink" width="128" height="128"><defs><style type="text/css"></style></defs><path d="M50.304 896.64a24.96 24.96 0 0 1-25.216 24.96A24.96 24.96 0 0 1 0 896.64V503.04C0 225.28 229.632 0 512 0c282.624 0 512 226.048 512 504.32V896a24.96 24.96 0 0 1-25.088 24.832A24.96 24.96 0 0 1 973.696 896V504.32C973.696 253.44 766.848 49.92 512 49.92 257.28 49.92 50.304 252.8 50.304 503.04v393.6zM102.4 717.696c0-56.96 45.44-103.296 102.4-103.296h102.4V1024h-102.4a103.296 103.296 0 0 1-102.4-103.296V717.696zM716.8 614.4h102.4c56.576 0 102.4 46.976 102.4 103.296v203.008A102.656 102.656 0 0 1 819.2 1024h-102.4V614.4z" p-id="2129"></path></svg>