<?xml version="1.0" standalone="no"?><!DOCTYPE svg PUBLIC "-//W3C//DTD SVG 1.1//EN" "http://www.w3.org/Graphics/SVG/1.1/DTD/svg11.dtd"><svg t="1602507436987" class="icon" viewBox="0 0 1024 1024" version="1.1" xmlns="http://www.w3.org/2000/svg" p-id="5647" xmlns:xlink="http://www.w3.org/1999/xlink" width="128" height="128"><defs><style type="text/css"></style></defs><path d="M773.45792 1005.42976c-14.40256 0-30.592-4.13184-45.59872-11.63776l-214.29248-107.18208-215.61856 107.008c-13.65504 7.2704-29.2864 11.08992-45.22496 11.08992a96.16384 96.16384 0 0 1-57.5488-18.8416c-30.17728-22.64064-45.63968-61.8496-38.5024-97.5616l44.09856-228.77184L31.744 501.99552a104.05888 104.05888 0 0 1-26.28096-100.6592l0.33792-1.16224c12.288-36.82816 42.77248-62.63296 79.73376-67.584l234.83904-42.7008L425.7792 75.81184c16.93184-33.8944 51.36896-55.67488 87.78752-55.67488 37.9904 0 73.3184 22.59968 88.13056 56.28928l105.06752 213.4016 234.87488 41.0624A95.67232 95.67232 0 0 1 1019.904 399.26272a98.9696 98.9696 0 0 1-24.4736 101.00224l-0.57856 0.57856-168.5504 158.72 42.5984 229.18144c6.8608 36.64896-7.71584 73.67168-38.06208 96.7424a90.40896 90.40896 0 0 1-57.37984 19.9424z m-259.8144-199.55712l224.97792 112.51712c6.6048 3.328 14.21824 5.42208 19.4304 5.42208 8.01792 0 15.46752-2.46784 20.93568-7.02976l1.01888-0.83968c12.78464-9.59488 19.01568-24.83712 16.22016-39.76704l-45.27616-243.8912 179.07712-168.63744c10.98752-11.14624 14.75072-27.1104 9.87648-41.78944l-0.49152-1.54112a36.88448 36.88448 0 0 0-30.60736-26.68544l-1.01888-0.15872-247.78752-43.3152-111.5136-226.51392c-5.41696-12.65664-20.10624-21.84192-34.944-21.84192-14.57664 0-28.5184 9.12384-35.584 23.2192L367.16032 350.0544l-249.088 45.25056c-15.1296 1.89952-26.88 11.94496-32.31232 27.61728-3.85024 14.32064 0.71168 31.56992 11.2384 42.33216l179.28192 167.0656-47.0528 244.0192c-2.82624 14.11072 3.85536 30.35136 16.21504 39.62368 6.1952 4.6592 14.22336 7.22944 22.64576 7.22944 6.49216 0 12.71296-1.5104 18.07872-4.39808l0.77312-0.45056 226.70336-112.47104z" p-id="5648"></path></svg>