<?xml version="1.0" standalone="no"?><!DOCTYPE svg PUBLIC "-//W3C//DTD SVG 1.1//EN" "http://www.w3.org/Graphics/SVG/1.1/DTD/svg11.dtd"><svg t="1602753331514" class="icon" viewBox="0 0 1024 1024" version="1.1" xmlns="http://www.w3.org/2000/svg" p-id="4045" xmlns:xlink="http://www.w3.org/1999/xlink" width="128" height="128"><defs><style type="text/css"></style></defs><path d="M742.34 916.19c-7.87 0-15.78-1.9-23.09-5.74L512.66 801.82c-0.44-0.23-0.96-0.23-1.39 0l-206.6 108.62c-16.8 8.83-36.77 7.39-52.13-3.76-15.36-11.16-22.91-29.71-19.71-48.42L272.3 628.2c0.08-0.49-0.08-0.98-0.43-1.33L104.72 463.96c-13.59-13.25-18.39-32.7-12.53-50.75 5.87-18.05 21.18-30.97 39.97-33.7l230.98-33.56c0.49-0.07 0.91-0.38 1.13-0.82l103.3-209.3c8.4-17.03 25.42-27.61 44.4-27.61h0.01c18.98 0 35.99 10.58 44.38 27.6l103.3 209.29c0.22 0.44 0.63 0.75 1.11 0.82l231 33.56c18.78 2.73 34.09 15.64 39.96 33.68 5.87 18.05 1.08 37.5-12.51 50.75L752.06 626.88c-0.36 0.35-0.52 0.86-0.43 1.36l39.46 230.02c3.21 18.72-4.34 37.27-19.7 48.43-8.68 6.3-18.84 9.5-29.05 9.5zM511.96 753.64c7.92 0 15.83 1.9 23.05 5.7l206.58 108.63c0.39 0.2 0.83 0.43 1.58-0.11 0.76-0.55 0.68-1.04 0.6-1.48l-39.46-230.05c-2.74-16.09 2.58-32.46 14.24-43.82L885.7 429.57c0.31-0.3 0.67-0.65 0.38-1.55-0.29-0.89-0.78-0.96-1.21-1.03l-230.98-33.56c-16.11-2.33-30.04-12.45-37.27-27.07L513.3 157.05c-0.2-0.41-0.41-0.83-1.34-0.83-0.94 0-1.16 0.45-1.35 0.85l-103.3 209.3a49.505 49.505 0 0 1-37.26 27.08l-230.99 33.56c-0.43 0.06-0.93 0.14-1.22 1.03-0.29 0.89 0.07 1.24 0.38 1.55L305.36 592.5a49.477 49.477 0 0 1 14.24 43.83l-39.46 230.05c-0.07 0.43-0.16 0.92 0.6 1.48 0.76 0.55 1.19 0.32 1.58 0.12l206.59-108.62a49.228 49.228 0 0 1 23.05-5.72z" p-id="4046"></path></svg>