<?xml version="1.0" standalone="no"?><!DOCTYPE svg PUBLIC "-//W3C//DTD SVG 1.1//EN" "http://www.w3.org/Graphics/SVG/1.1/DTD/svg11.dtd"><svg t="1602760776080" class="icon" viewBox="0 0 1024 1024" version="1.1" xmlns="http://www.w3.org/2000/svg" p-id="1765" xmlns:xlink="http://www.w3.org/1999/xlink" width="128" height="128"><defs><style type="text/css"></style></defs><path d="M511.96 512.2m-433.5 0a433.5 433.5 0 1 0 867 0 433.5 433.5 0 1 0-867 0Z" p-id="1766"></path><path d="M441.73 704.57H404.8c-13.65 0-24.72-11.07-24.72-24.72V344.56c0-13.65 11.07-24.72 24.72-24.72h36.93c13.65 0 24.72 11.07 24.72 24.72v335.29c0 13.65-11.06 24.72-24.72 24.72zM619.12 704.57h-36.93c-13.65 0-24.72-11.07-24.72-24.72V344.56c0-13.65 11.07-24.72 24.72-24.72h36.93c13.65 0 24.72 11.07 24.72 24.72v335.29c0 13.65-11.07 24.72-24.72 24.72z" p-id="1767" data-spm-anchor-id="a313x.7781069.0.i0" class="selected" fill="#FFFFFF"></path></svg>