<?xml version="1.0" standalone="no"?><!DOCTYPE svg PUBLIC "-//W3C//DTD SVG 1.1//EN" "http://www.w3.org/Graphics/SVG/1.1/DTD/svg11.dtd"><svg t="1603164268469" class="icon" viewBox="0 0 1024 1024" version="1.1" xmlns="http://www.w3.org/2000/svg" p-id="7875" xmlns:xlink="http://www.w3.org/1999/xlink" width="128" height="128"><defs><style type="text/css"></style></defs><path d="M770.052 313.112h-515.22c-24.008 0-43.598 19.59-43.598 43.597v494.157c0 24.008 19.59 43.598 43.598 43.598h515.22c24.008 0 43.597-19.59 43.597-43.598v-494.01c0-24.155-19.59-43.744-43.597-43.744z m15.76 537.754c0 8.69-7.07 15.76-15.76 15.76h-515.22c-8.69 0-15.76-7.07-15.76-15.76v-494.01c0-8.69 7.07-15.76 15.76-15.76h515.22c8.69 0 15.76 7.07 15.76 15.76v494.01zM277.22 255.521h470.296c7.66 0 13.993-6.186 13.993-13.992s-6.186-13.993-13.993-13.993H277.22c-7.659 0-13.992 6.186-13.992 13.993s6.333 13.992 13.992 13.992z m44.629-86.9h381.038c6.923 0 12.52-5.598 12.52-12.52s-5.597-12.52-12.52-12.52H321.85c-6.923 0-12.52 5.597-12.52 12.52s5.597 12.52 12.52 12.52z" p-id="7876"></path><path d="M634.103 451.711l-194.57 31.962c-3.387 0.59-5.891 3.535-5.891 6.923v173.949c0 13.403-9.721 24.744-22.977 26.66l-19 2.798c-16.203 2.356-28.133 16.349-28.133 32.55v3.388c0 20.18 17.97 35.644 37.853 32.551l24.892-3.682c22.978-3.387 39.916-23.124 39.916-46.396V563.357c0-3.535 2.504-6.481 5.891-6.923l129.615-21.21c4.272-0.736 8.249 2.652 8.249 6.923v94.56c0 13.403-9.721 24.745-22.978 26.66l-19 2.798c-16.202 2.357-28.132 16.35-28.132 32.551v3.388c0 20.178 17.97 35.644 37.853 32.55l24.892-3.682c22.977-3.387 39.916-23.124 39.916-46.396V458.634c-0.148-4.419-4.124-7.66-8.396-6.923z" p-id="7877"></path></svg>