<?xml version="1.0" standalone="no"?><!DOCTYPE svg PUBLIC "-//W3C//DTD SVG 1.1//EN" "http://www.w3.org/Graphics/SVG/1.1/DTD/svg11.dtd"><svg t="1603164277160" class="icon" viewBox="0 0 1024 1024" version="1.1" xmlns="http://www.w3.org/2000/svg" p-id="8296" xmlns:xlink="http://www.w3.org/1999/xlink" width="128" height="128"><defs><style type="text/css"></style></defs><path d="M512.765 529.535c-95.115 0-172.5-77.535-172.5-172.83 0-95.31 77.385-172.845 172.5-172.845s172.5 77.535 172.5 172.845c0 95.295-77.385 172.83-172.5 172.83z m0-315.69c-78.57 0-142.5 64.08-142.5 142.845s63.93 142.83 142.5 142.83 142.5-64.065 142.5-142.83-63.93-142.845-142.5-142.845z" p-id="8297"></path><path d="M717.05 854.18h-80.055v-30h80.055a73.8 73.8 0 0 0 63.015-34.275 75.555 75.555 0 0 0 5.445-72.345c-48.255-107.355-154.875-176.715-271.65-176.715h-4.665c-116.79 0-223.41 69.36-271.65 176.715a75.645 75.645 0 0 0 5.43 72.345 73.8 73.8 0 0 0 63.03 34.275H384.5v30h-78.495a104.655 104.655 0 0 1-88.215-47.97 105.495 105.495 0 0 1-7.605-100.95c53.07-118.095 170.43-194.415 299.01-194.415h4.665c128.565 0 245.94 76.32 299.025 194.415a105.525 105.525 0 0 1-7.62 100.95 104.7 104.7 0 0 1-88.215 47.97z" p-id="8298"></path><path d="M497 737h30v120h-30z" p-id="8299"></path><path d="M523.34 757.505h-23.61a48.255 48.255 0 0 1-48.195-48.195V655.7a48.255 48.255 0 0 1 48.195-48.195h23.61a48.255 48.255 0 0 1 48.195 48.195v53.61a48.255 48.255 0 0 1-48.195 48.195z m-23.61-120c-10.035 0-18.195 8.16-18.195 18.195v53.61c0 10.035 8.16 18.195 18.195 18.195h23.61c10.035 0 18.195-8.16 18.195-18.195V655.7c0-10.035-8.16-18.195-18.195-18.195h-23.61z" p-id="8300"></path></svg>