<?xml version="1.0" standalone="no"?><!DOCTYPE svg PUBLIC "-//W3C//DTD SVG 1.1//EN" "http://www.w3.org/Graphics/SVG/1.1/DTD/svg11.dtd"><svg t="1620214160588" class="icon" viewBox="0 0 1026 1024" version="1.1" xmlns="http://www.w3.org/2000/svg" p-id="2679" xmlns:xlink="http://www.w3.org/1999/xlink" width="128.25" height="128"><defs><style type="text/css"></style></defs><path d="M627.828503 167.989142a191.923353 191.923353 0 0 0-229.613094 0 31.936128 31.936128 0 0 0 37.996328 51.343074 128.461924 128.461924 0 0 1 153.620439 0 31.936128 31.936128 0 0 0 37.996327-51.343074zM513.021956 2.043912C231.268663 2.043912 2.043912 231.268663 2.043912 513.021956v319.361278a31.92182 31.92182 0 0 0 31.925908 31.946347h63.892695v127.744511a31.925908 31.925908 0 0 0 63.851816 0v-63.892695h79.671697a48.123912 48.123912 0 0 0 48.072814-48.072814V529.168862a48.123912 48.123912 0 0 0-48.072814-48.072814H145.935329a48.123912 48.123912 0 0 0-48.072814 48.072814v15.779002H65.916168V513.021956c0-246.536687 200.569102-447.105788 447.105788-447.105788S960.127745 266.485269 960.127745 513.021956v31.925908h-31.946348v-15.779002a48.123912 48.123912 0 0 0-48.072814-48.072814h-95.450699a48.123912 48.123912 0 0 0-48.072814 48.072814v350.939721a48.123912 48.123912 0 0 0 48.072814 48.072814h79.671697v63.892695a31.925908 31.925908 0 0 0 63.851816 0v-127.744511h63.892695A31.92182 31.92182 0 0 0 1024 832.383234V513.021956C1024 231.268663 794.77525 2.043912 513.021956 2.043912zM161.714331 544.947864h63.892695v319.381717H161.714331V544.947864z m-63.851816 63.892695v191.596327H65.916168v-191.596327h31.946347z m702.574371 255.489022V544.947864h63.892695v319.381717h-63.892695z m159.690859-63.892695h-31.946348v-191.596327h31.946348v191.596327zM513.021956 544.947864a31.909557 31.909557 0 0 0-31.925908 31.946348v255.489022a31.925908 31.925908 0 1 0 63.851816 0v-255.489022A31.909557 31.909557 0 0 0 513.021956 544.947864z m127.744511 63.892695a31.88503 31.88503 0 0 0-31.925908 31.925908V768.510978a31.925908 31.925908 0 0 0 63.851816 0v-127.744511a31.88503 31.88503 0 0 0-31.925908-31.925908z m-255.489022 0a31.88503 31.88503 0 0 0-31.925908 31.925908V768.510978a31.925908 31.925908 0 0 0 63.851816 0v-127.744511a31.88503 31.88503 0 0 0-31.925908-31.925908z" p-id="2680" fill="#666666"></path></svg>