<?xml version="1.0" standalone="no"?><!DOCTYPE svg PUBLIC "-//W3C//DTD SVG 1.1//EN" "http://www.w3.org/Graphics/SVG/1.1/DTD/svg11.dtd"><svg t="1603289344415" class="icon" viewBox="0 0 1024 1024" version="1.1" xmlns="http://www.w3.org/2000/svg" p-id="6656" xmlns:xlink="http://www.w3.org/1999/xlink" width="128" height="128"><defs><style type="text/css"></style></defs><path d="M475.343252 365.619486H365.657406a36.561949 36.561949 0 0 0 0 73.123897h109.685846v109.685846a36.561949 36.561949 0 0 0 73.123897 0V438.743383H658.152994a36.561949 36.561949 0 0 0 0-73.123897H548.467149V255.93364a36.561949 36.561949 0 0 0-73.123897 0V365.619486zM219.409611 0h584.991178a73.123897 73.123897 0 0 1 73.123897 73.123897v877.779262a73.123897 73.123897 0 0 1-128.478687 47.749905l-181.786009-210.88932a73.123897 73.123897 0 0 0-110.70958 0l-181.786008 210.88932A73.123897 73.123897 0 0 1 146.285714 950.903159V73.123897a73.123897 73.123897 0 0 1 73.123897-73.123897z" p-id="6657"></path></svg>