<?xml version="1.0" standalone="no"?><!DOCTYPE svg PUBLIC "-//W3C//DTD SVG 1.1//EN" "http://www.w3.org/Graphics/SVG/1.1/DTD/svg11.dtd"><svg t="1602644563267" class="icon" viewBox="0 0 1024 1024" version="1.1" xmlns="http://www.w3.org/2000/svg" p-id="7421" xmlns:xlink="http://www.w3.org/1999/xlink" width="128" height="128"><defs><style type="text/css"></style></defs><path d="M844.8 73.6H179.2c-63.6 0-115.1 51.6-115.2 115.2v454.9c0 63.5 51.7 115.2 115.2 115.2h352l180.3 180.3c7.5 7.5 17.3 11.2 27.2 11.2 9.8 0 19.7-3.7 27.2-11.2 15-15 15-39.3 0-54.3l-184-184c-12-12.1-28.3-18.8-45.3-18.8H179.2c-21.2 0-38.4-17.2-38.4-38.4V188.8c0-21.2 17.2-38.4 38.4-38.4h665.6c21.2 0 38.4 17.2 38.4 38.4v454.9c0 21.2-17.2 38.4-38.4 38.4h-87c-21.2 0-38.4 17.2-38.4 38.4s17.2 38.4 38.4 38.4h87c63.5 0 115.2-51.7 115.2-115.2V188.8c0-63.5-51.7-115.2-115.2-115.2z" p-id="7422"></path></svg>