<?xml version="1.0" standalone="no"?><!DOCTYPE svg PUBLIC "-//W3C//DTD SVG 1.1//EN" "http://www.w3.org/Graphics/SVG/1.1/DTD/svg11.dtd"><svg t="1602655556818" class="icon" viewBox="0 0 1024 1024" version="1.1" xmlns="http://www.w3.org/2000/svg" p-id="16429" xmlns:xlink="http://www.w3.org/1999/xlink" width="128" height="128"><defs><style type="text/css"></style></defs><path d="M492.8 179.2h44.8v161.6h-44.8V179.2z" fill="#F0C789" p-id="16430"></path><path d="M750.4 865.6l-142.4-9.6-96 105.6-94.4-107.2-140.8 9.6 8-142.4-105.6-96 107.2-94.4-8-142.4 142.4 8 96-105.6 94.4 107.2 142.4-8-8 142.4 105.6 96-107.2 94.4 6.4 142.4z" fill="#F0C789" p-id="16431"></path><path d="M337.6 627.2c0 97.6 78.4 177.6 176 177.6s177.6-78.4 177.6-176-78.4-177.6-177.6-177.6c-97.6 0-176 78.4-176 176z" fill="#D3AC6B" p-id="16432"></path><path d="M595.2 752l-80-22.4-80 22.4-3.2-83.2-48-70.4 78.4-28.8 52.8-65.6 52.8 65.6 78.4 28.8-46.4 70.4-4.8 83.2z" fill="#F0C789" p-id="16433"></path><path d="M337.6 60.8h353.6v161.6H337.6V60.8z" fill="#D3AC6B" p-id="16434"></path><path d="M382.4 60.8h44.8v161.6h-44.8V60.8zM603.2 60.8h44.8v161.6h-44.8V60.8z" fill="#FFFFFF" p-id="16435"></path></svg>