<?xml version="1.0" standalone="no"?><!DOCTYPE svg PUBLIC "-//W3C//DTD SVG 1.1//EN" "http://www.w3.org/Graphics/SVG/1.1/DTD/svg11.dtd"><svg t="1602655371209" class="icon" viewBox="0 0 1024 1024" version="1.1" xmlns="http://www.w3.org/2000/svg" p-id="15207" data-spm-anchor-id="a313x.7781069.0.i39" xmlns:xlink="http://www.w3.org/1999/xlink" width="128" height="128"><defs><style type="text/css"></style></defs><path d="M486.788361 133.698085h50.168615v183.612037h-50.168615V133.698085z" fill="#fbe060" p-id="15208"></path><path d="M780.924148 913.221587l-161.96568-9.677195-108.231783 120.455608-107.467794-121.219597-161.96568 8.658543 9.931857-161.456355L130.514797 641.750808l121.219597-107.467794-8.658542-161.711017 161.711017 9.931858 108.486446-120.455608 107.467794 120.964934 161.711017-8.658543-9.677194 161.711017 120.710271 107.97712-121.47426 107.467795 8.913205 161.711017z" fill="#DFE8ED" p-id="15209" data-spm-anchor-id="a313x.7781069.0.i40" class=""></path><path d="M520.40388 451.008207a200.419796 200.419796 0 1 1-200.674459 200.165133 199.91047 199.91047 0 0 1 200.674459-200.165133z" fill="#B6CCDB" p-id="15210" data-spm-anchor-id="a313x.7781069.0.i41" class=""></path><path d="M616.411838 787.163392l-91.424024-25.211639-91.678687 24.956976-4.074608-94.734643-52.205919-78.945536 88.877394-33.360855 59.336483-73.852276 59.08182 74.106939 88.877394 33.360855-52.460582 78.945536-4.329271 94.734643z" fill="#FFFFFF" p-id="15211" data-spm-anchor-id="a313x.7781069.0.i37" class="selected"></path><path d="M302.921661 0h401.348918v183.612037H302.921661V0z" fill="#B6CCDB" p-id="15212" data-spm-anchor-id="a313x.7781069.0.i34" class=""></path><path d="M353.090276 0h50.168615v183.612037H353.090276V0zM603.93335 0h50.168615v183.612037h-50.168615V0z" fill="#DFE8ED" p-id="15213" data-spm-anchor-id="a313x.7781069.0.i38" class=""></path></svg>