<?xml version="1.0" standalone="no"?><!DOCTYPE svg PUBLIC "-//W3C//DTD SVG 1.1//EN" "http://www.w3.org/Graphics/SVG/1.1/DTD/svg11.dtd"><svg t="1602753323247" class="icon" viewBox="0 0 1024 1024" version="1.1" xmlns="http://www.w3.org/2000/svg" p-id="3613" xmlns:xlink="http://www.w3.org/1999/xlink" width="128" height="128"><defs><style type="text/css"></style></defs><path d="M375.93 359.68V664.3l1.8 1.59 213.46 163.36V194.73L375.93 359.68z m471.16-255.2c7.67-7.67 19.85-7.67 27.08 0 7.21 7.21 7.21 19.41 0 27.08l-60.49 60.01 60.49 60.49c7.21 7.21 7.21 19.85 0 26.85-7.23 7.44-19.41 7.44-27.08 0l-60.47-60.26-60.03 60.26c-7.67 7.44-19.64 7.44-27.08 0-7.67-7.46-7.67-19.64 0-26.85l60.24-60.49-60.24-60.01c-7.67-7.67-7.67-19.87 0-27.08 7.44-7.67 19.41-7.67 27.08 0l60.03 60.01 60.47-60.01zM337.8 366.23H208.04v291.53H337.8V366.23z m8.34-63.64l255.88-196.08c5.43-4.74 12.87-7.47 20.77-7.47 17.58 0 32.03 14.01 32.03 31.61V341.4c29.34 12.18 55.06 31.59 74.47 56.4 24.82 31.59 39.72 71.08 39.72 114.19 0 43.09-14.9 82.81-39.72 114.17-19.41 24.82-45.13 44.23-74.47 56.4v210.75c0 7.23-2.47 13.77-6.77 19.64-10.37 13.77-30.69 16.47-44.43 5.64l-257.48-197.2H176.22c-17.58 0-31.79-14.21-31.79-31.59V334.41c0-17.61 14.21-31.82 31.79-31.82h169.92z m308.68 80.78v257.24c17.17-9.47 32.51-22.57 44.69-37.92 19.41-24.82 31.15-56.4 31.15-90.69 0-33.85-11.74-65.67-31.15-90.48-12.18-15.58-27.52-28.45-44.69-38.15z" fill="#717071" p-id="3614"></path></svg>