<?xml version="1.0" standalone="no"?><!DOCTYPE svg PUBLIC "-//W3C//DTD SVG 1.1//EN" "http://www.w3.org/Graphics/SVG/1.1/DTD/svg11.dtd"><svg t="1620214752573" class="icon" viewBox="0 0 1024 1024" version="1.1" xmlns="http://www.w3.org/2000/svg" p-id="13300" xmlns:xlink="http://www.w3.org/1999/xlink" width="128" height="128"><defs><style type="text/css"></style></defs><path d="M416 544c0-54.4 41.6-96 96-96s96 41.6 96 96-41.6 96-96 96-96-41.6-96-96z m96 416C265.6 960 64 758.4 64 512S265.6 64 512 64c44.8 0 86.4 6.4 128 19.2v320c-35.2-32-80-51.2-128-51.2-105.6 0-192 86.4-192 192s86.4 192 192 192 192-86.4 192-192V108.8c150.4 70.4 256 227.2 256 403.2 0 246.4-201.6 448-448 448z" p-id="13301" fill="#666666"></path></svg>